<svg xmlns="http://www.w3.org/2000/svg" viewBox="0 0 32 32" width="50px" height="50px" fill-rule="evenodd">
  <path fill-rule="evenodd" d="M 16 4 C 22.628906 4 28 9.371094 28 16 C 28 21.300781 24.566406 25.796875 19.800781 27.386719 C 19.191406 27.503906 18.976563 27.128906 18.976563 26.808594 C 18.976563 26.414063 18.988281 25.121094 18.988281 23.515625 C 18.988281 22.398438 18.605469 21.664063 18.175781 21.296875 C 20.847656 20.996094 23.652344 19.984375 23.652344 15.375 C 23.652344 14.0625 23.191406 12.992188 22.421875 12.152344 C 22.546875 11.851563 22.957031 10.628906 22.300781 8.976563 C 22.300781 8.976563 21.296875 8.65625 19.003906 10.207031 C 18.046875 9.941406 17.019531 9.808594 16 9.804688 C 14.980469 9.808594 13.953125 9.941406 12.996094 10.207031 C 10.703125 8.65625 9.695313 8.976563 9.695313 8.976563 C 9.042969 10.628906 9.457031 11.851563 9.578125 12.152344 C 8.8125 12.992188 8.34375 14.0625 8.34375 15.375 C 8.34375 19.972656 11.144531 21.003906 13.808594 21.304688 C 13.46875 21.605469 13.15625 22.132813 13.046875 22.910156 C 12.363281 23.214844 10.625 23.746094 9.554688 21.910156 C 9.554688 21.910156 8.421875 21.402344 7.636719 21.402344 C 7.636719 21.402344 8.96875 23.160156 13.011719 24.769531 C 13.015625 25.769531 13.027344 26.523438 13.027344 26.808594 C 13.027344 27.128906 12.808594 27.496094 12.207031 27.386719 C 7.4375 25.800781 4 21.300781 4 16 C 4 9.371094 9.371094 4 16 4 Z" fill="white"/>
</svg>
