<svg xmlns="http://www.w3.org/2000/svg" xmlns:xlink="http://www.w3.org/1999/xlink" viewBox="0,0,256,256" width="50px" height="50px" fill-rule="nonzero"><g fill="#2a7ae4" fill-rule="nonzero" stroke="none" stroke-width="1" stroke-linecap="butt" stroke-linejoin="miter" stroke-miterlimit="10" stroke-dasharray="" stroke-dashoffset="0" font-family="none" font-weight="none" font-size="none" text-anchor="none" style="mix-blend-mode: normal"><g transform="scale(10.66667,10.66667)"><path d="M11.382,2.021c-4.777,0.321 -8.382,4.509 -8.382,9.297v7.682c0,1.105 0.895,2 2,2h2c0.552,0 1,-0.448 1,-1v-5c0,-0.552 -0.448,-1 -1,-1h-2v-2.756c0,-3.557 2.551,-6.732 6.079,-7.184c4.269,-0.548 7.921,2.777 7.921,6.94v3h-2c-0.552,0 -1,0.448 -1,1v5c0,0.552 0.448,1 1,1h2c1.105,0 2,-0.895 2,-2v-8c0,-5.166 -4.377,-9.331 -9.618,-8.979z"></path></g></g></svg>