<svg xmlns="http://www.w3.org/2000/svg" viewBox="0 0 85.5 28" style="enable-background:new 0 0 85.5 28" xml:space="preserve" width="125" height="28"><circle cx="23.6" cy="14" r="8.9" style="fill:none;stroke:#8c8c8c;stroke-width:9.9291;stroke-miterlimit:3.9716;stroke-opacity:.15"/><circle cx="23.6" cy="14" r="7.9" style="opacity:.6;fill:none;stroke:#8c8c8c;stroke-width:1.9858;stroke-miterlimit:3.9716;enable-background:new"/><path d="M35.5 24.9V3.1h7.6c1.8 0 3.3.3 4.4.9 1.1.6 2 1.4 2.6 2.4.6 1 .8 2.2.8 3.5s-.3 2.4-.8 3.4c-.6 1-1.4 1.8-2.5 2.4s-2.6.8-4.4.8H37V14h6.2c1.2 0 2.2-.2 3-.5s1.3-.8 1.6-1.5c.3-.6.5-1.4.5-2.3 0-.9-.2-1.7-.5-2.3-.3-.7-.9-1.2-1.6-1.5-.8-.4-1.7-.5-3-.5h-4.9v19.5h-2.8zm10.7-9.8 5.6 9.8h-3.2L43 15.1h3.2zM5.6 25.3c-1.2 0-2.2-.2-3.2-.7s-1.8-1.1-2.4-2l2.5-1.8c.3.5.7.9 1.2 1.2s1.2.4 1.9.4c1.2 0 2.1-.4 2.8-1.1.7-.8 1-1.8 1-3.2v-15h3.1v15c0 2.3-.6 4.1-1.8 5.4s-3 1.8-5.1 1.8zm56.6-.1c-3.2 0-5.7-.9-7.2-2.8s-2.4-4.6-2.4-8.3c0-3.5.8-6.3 2.5-8.1 1.7-1.9 4-2.9 7-2.9 1.5 0 2.8.2 4 .7 1.2.5 2 1.1 2.5 2L66.3 8c-.5-.7-1.1-1.2-1.8-1.6-.7-.2-1.4-.4-2.3-.4-2.1 0-3.6.7-4.8 2.1-1.1 1.4-1.7 3.4-1.7 6 0 2.8.6 5 1.7 6.4 1.1 1.4 2.8 2.1 5.1 2.1 1 0 1.8-.1 2.6-.3.7-.2 1.3-.3 1.8-.5l1.2 2.7c-.4.1-1.2.3-2.2.6-1.1 0-2.3.1-3.7.1zm-2.7-8.1v-2.9h7.1v2.9h-7.1zm5.7 7.2V14.2h2.9v10.1h-2.9zm6.1.5V3.4h3v21.4h-3zm0-18.5V3.4h14.2v2.9H71.3zm0 9.2v-2.9h11.5v2.9H71.3zm0 9.3v-2.9h14.2v2.9H71.3z" style="fill:#fff"/></svg>