<svg xmlns="http://www.w3.org/2000/svg" xmlns:xlink="http://www.w3.org/1999/xlink" viewBox="0,0,256,256" width="100px" height="100px" fill-rule="nonzero"><g fill="none" fill-rule="nonzero" stroke="none" stroke-width="1" stroke-linecap="butt" stroke-linejoin="miter" stroke-miterlimit="10" stroke-dasharray="" stroke-dashoffset="0" font-family="none" font-weight="none" font-size="none" text-anchor="none" style="mix-blend-mode: normal"><g transform="scale(10.66667,10.66667)"><path d="M12.546,24l-0.639,-0.219c0,0 0.078,-3.257 -1.091,-3.49c-0.78,-0.904 0.125,-38.338 2.93,-0.125c0,0 -0.966,0.484 -1.138,1.31c-0.186,0.81 -0.062,2.524 -0.062,2.524z" fill="#ffffff"></path><path d="M12.546,24l-0.639,-0.219c0,0 0.078,-3.257 -1.091,-3.49c-0.78,-0.904 0.125,-38.338 2.93,-0.125c0,0 -0.966,0.484 -1.138,1.31c-0.186,0.81 -0.062,2.524 -0.062,2.524z" fill="#a6a385"></path><path d="M12.889,20.852c0,0 5.595,-3.678 4.285,-11.33c-1.262,-5.562 -4.238,-7.387 -4.566,-8.088c-0.359,-0.498 -0.701,-1.371 -0.701,-1.371l0.234,15.474c0.001,0.015 -0.483,4.738 0.748,5.315v0z" fill="#ffffff"></path><path d="M12.889,20.852c0,0 5.595,-3.678 4.285,-11.33c-1.262,-5.562 -4.238,-7.387 -4.566,-8.088c-0.359,-0.498 -0.701,-1.371 -0.701,-1.371l0.234,15.474c0.001,0.015 -0.483,4.738 0.748,5.315v0z" fill="#499d4a"></path><path d="M11.58,21.055c0,0 -5.252,-3.585 -4.94,-9.896c0.296,-6.311 4.006,-9.413 4.722,-9.974c0.467,-0.5 0.483,-0.686 0.514,-1.185c0.328,0.701 0.266,10.488 0.312,11.641c0.14,4.442 -0.25,8.572 -0.608,9.414z" fill="#ffffff"></path><path d="M11.58,21.055c0,0 -5.252,-3.585 -4.94,-9.896c0.296,-6.311 4.006,-9.413 4.722,-9.974c0.467,-0.5 0.483,-0.686 0.514,-1.185c0.328,0.701 0.266,10.488 0.312,11.641c0.14,4.442 -0.25,8.572 -0.608,9.414z" fill="#58aa50"></path><path d="M12,18.545c-0.119,1.256 -0.272,2.162 -0.42,2.509c0,0 -0.024,-0.016 -0.069,-0.049c0.368,0.862 0.397,2.234 0.397,2.651c0,0.079 -0.001,0.124 -0.001,0.124v0l0.093,0.033v-5.268z" fill="#918e74"></path><path d="M11.907,0.063v0v0.039c0.036,0.153 0.067,0.423 0.093,0.782v-0.598c-0.058,-0.136 -0.093,-0.223 -0.093,-0.223z" fill="#408940"></path><path d="M11.876,0c-0.031,0.499 -0.047,0.685 -0.514,1.184c-0.717,0.561 -4.427,3.662 -4.722,9.974c-0.009,0.185 -0.014,0.367 -0.013,0.548c0.005,5.971 4.954,9.349 4.954,9.349c0.148,-0.347 0.301,-1.253 0.42,-2.509v-17.662c-0.026,-0.359 -0.057,-0.629 -0.092,-0.781v0c-0.011,-0.045 -0.022,-0.079 -0.033,-0.103z" fill="#4d8248"></path></g></g></svg>