<svg xmlns="http://www.w3.org/2000/svg" xmlns:xlink="http://www.w3.org/1999/xlink" viewBox="0,0,256,256" width="50px" height="50px" fill-rule="nonzero"><defs><linearGradient x1="21" y1="16.532" x2="21" y2="37.815" gradientUnits="userSpaceOnUse" id="color-1"><stop offset="0" stop-color="#6ac6ff"></stop><stop offset="1" stop-color="#abffdf"></stop></linearGradient><linearGradient x1="26" y1="47.596" x2="26" y2="55.093" gradientUnits="userSpaceOnUse" id="color-2"><stop offset="0" stop-color="#6ac6ff"></stop><stop offset="1" stop-color="#abffdf"></stop></linearGradient><linearGradient x1="32" y1="6.574" x2="32" y2="54.699" gradientUnits="userSpaceOnUse" id="color-3"><stop offset="0" stop-color="#000000"></stop><stop offset="1" stop-color="#2261ff"></stop></linearGradient><linearGradient x1="21" y1="6.574" x2="21" y2="54.699" gradientUnits="userSpaceOnUse" id="color-4"><stop offset="0" stop-color="#000000"></stop><stop offset="1" stop-color="#2261ff"></stop></linearGradient><linearGradient x1="33.5" y1="6.574" x2="33.5" y2="54.699" gradientUnits="userSpaceOnUse" id="color-5"><stop offset="0" stop-color="#000000"></stop><stop offset="1" stop-color="#2261ff"></stop></linearGradient><linearGradient x1="37" y1="6.574" x2="37" y2="54.699" gradientUnits="userSpaceOnUse" id="color-6"><stop offset="0" stop-color="#000000"></stop><stop offset="1" stop-color="#2261ff"></stop></linearGradient><linearGradient x1="33.5" y1="6.574" x2="33.5" y2="54.699" gradientUnits="userSpaceOnUse" id="color-7"><stop offset="0" stop-color="#000000"></stop><stop offset="1" stop-color="#2261ff"></stop></linearGradient><linearGradient x1="37" y1="6.574" x2="37" y2="54.699" gradientUnits="userSpaceOnUse" id="color-8"><stop offset="0" stop-color="#000000"></stop><stop offset="1" stop-color="#2261ff"></stop></linearGradient><linearGradient x1="33.5" y1="6.574" x2="33.5" y2="54.699" gradientUnits="userSpaceOnUse" id="color-9"><stop offset="0" stop-color="#000000"></stop><stop offset="1" stop-color="#2261ff"></stop></linearGradient></defs><g fill="none" fill-rule="nonzero" stroke="none" stroke-width="1" stroke-linecap="butt" stroke-linejoin="miter" stroke-miterlimit="10" stroke-dasharray="" stroke-dashoffset="0" font-family="none" font-weight="none" font-size="none" text-anchor="none" style="mix-blend-mode: normal"><g transform="scale(4,4)"><rect x="18" y="16" width="6" height="24" fill="url(#color-1)"></rect><path d="M29,56l-3,-1l-3,1v-9h6z" fill="url(#color-2)"></path><path d="M46,9h-15v-1c0,-1.102 -0.898,-2 -2,-2h-6c-1.102,0 -2,0.898 -2,2v1h-3c-2.758,0 -5,2.242 -5,5v36.004c0,2.754 2.242,4.996 5,4.996h3v0.992c0,0.766 0.426,1.453 1.109,1.793c0.286,0.145 0.59,0.215 0.899,0.215c0.422,0 0.844,-0.137 1.199,-0.402l1.793,-1.344l1.793,1.344c0.609,0.457 1.414,0.531 2.098,0.188c0.683,-0.341 1.109,-1.028 1.109,-1.794v-0.992h15c2.758,0 5,-2.242 5,-4.996v-36.004c0,-2.758 -2.242,-5 -5,-5zM23,8h6v1h-6zM21,49h-2v-2h2zM28.992,55.996l-1.793,-1.344c-0.707,-0.531 -1.691,-0.531 -2.398,0l-1.801,1.34v-8.992h6zM49,50.004c0,1.652 -1.344,2.996 -3,2.996h-15v-2h14c1.102,0 2,-0.895 2,-1.996v-2c0,-1.106 -0.898,-2.004 -2,-2.004h-26c-1.102,0 -2,0.898 -2,2.004v2c0,1.101 0.898,1.996 2,1.996h2v2h-3c-1.652,0 -3,-1.344 -3,-2.996v-36.004c0,-1.652 1.344,-3 3,-3h28c1.652,0 3,1.348 3,3zM31,49v-2h14v2z" fill="url(#color-3)"></path><path d="M24,15h-6c-0.553,0 -1,0.448 -1,1v24c0,0.552 0.447,1 1,1h6c0.553,0 1,-0.448 1,-1v-24c0,-0.552 -0.447,-1 -1,-1zM23,39h-4v-4h4zM23,33h-4v-4h4zM23,27h-4v-4h4zM23,21h-4v-4h4z" fill="url(#color-4)"></path><rect x="27" y="19" width="13" height="2" fill="url(#color-5)"></rect><rect x="27" y="23" width="20" height="2" fill="url(#color-6)"></rect><rect x="27" y="27" width="13" height="2" fill="url(#color-7)"></rect><rect x="27" y="31" width="20" height="2" fill="url(#color-8)"></rect><rect x="27" y="35" width="13" height="2" fill="url(#color-9)"></rect></g></g></svg>