<svg xmlns="http://www.w3.org/2000/svg" xmlns:xlink="http://www.w3.org/1999/xlink" viewBox="0,0,256,256" width="100px" height="100px" fill-rule="nonzero"><g fill="none" fill-rule="nonzero" stroke="none" stroke-width="1" stroke-linecap="butt" stroke-linejoin="miter" stroke-miterlimit="10" stroke-dasharray="" stroke-dashoffset="0" font-family="none" font-weight="none" font-size="none" text-anchor="none" style="mix-blend-mode: normal"><g transform="scale(4.26667,4.26667)"><path d="M1,7v38c0,3.21 8.86,5.84 20,5.99l22,-17.99v-26z" fill="#3d4b89"></path><ellipse cx="22" cy="7" rx="21" ry="6" fill="#5663af"></ellipse><path d="M1,32.993c0,3.314 9.4,6 21,6c11.6,0 21,-2.686 21,-6v-12.993c0,3.314 -9.4,6 -21,6c-11.6,0 -21,-2.686 -21,-6z" fill="#5663af"></path><rect x="21" y="33" width="38" height="26" rx="2" ry="0" fill-opacity="0" fill="#000000"></rect><path d="M57,32h-5c-0.55228,0 -1,0.44772 -1,1c0,0.55228 0.44772,1 1,1h5c0.55228,0 1,0.44772 1,1v22c0,0.55228 -0.44772,1 -1,1h-34c-0.55228,0 -1,-0.44772 -1,-1v-22c0,-0.55228 0.44772,-1 1,-1h25c0.55228,0 1,-0.44772 1,-1c0,-0.55228 -0.44772,-1 -1,-1h-4v-25c0,-4.6 -11.067,-7 -22,-7c-10.933,0 -22,2.4 -22,7v38c0,4.265 9.9,6.693 20,6.97v5.03c0,1.65685 1.34315,3 3,3h34c1.65685,0 3,-1.34315 3,-3v-22c0,-1.65685 -1.34315,-3 -3,-3zM22,2c12.209,0 20,2.961 20,5c0,2.039 -7.791,5 -20,5c-12.209,0 -20,-2.961 -20,-5c0,-2.039 7.791,-5 20,-5zM2,10.1c3.674,2.57 11.872,3.9 20,3.9c8.128,0 16.326,-1.33 20,-3.9v9.9c0,2.039 -7.791,5 -20,5c-12.209,0 -20,-2.961 -20,-5zM2,23.1c3.674,2.57 11.872,3.9 20,3.9c8.128,0 16.326,-1.33 20,-3.9v8.9h-19c-1.65685,0 -3,1.34315 -3,3v2.965c-11.172,-0.305 -18,-3.045 -18,-4.965zM2,45v-8.884c3.443,2.407 10.817,3.664 18,3.857v9.989c-11.172,-0.306 -18,-3.044 -18,-4.962z" fill="#ffffff"></path><path d="M44,43c0,-2.20914 -1.79086,-4 -4,-4c-2.20914,0 -4,1.79086 -4,4v6c0,2.20914 1.79086,4 4,4c0.71182,-0.00348 1.40944,-0.1994 2.019,-0.567l0.274,0.274c0.39238,0.37897 1.01608,0.37355 1.40182,-0.01218c0.38573,-0.38573 0.39115,-1.00944 0.01218,-1.40182l-0.274,-0.274c0.3676,-0.60956 0.56352,-1.30718 0.567,-2.019zM41.707,49.293c-0.39238,-0.37897 -1.01608,-0.37355 -1.40182,0.01218c-0.38573,0.38573 -0.39115,1.00944 -0.01218,1.40182l0.218,0.218c-0.16628,0.04743 -0.3381,0.07265 -0.511,0.075c-1.10457,0 -2,-0.89543 -2,-2v-6c0,-1.10457 0.89543,-2 2,-2c1.10457,0 2,0.89543 2,2v6c-0.00235,0.1729 -0.02757,0.34472 -0.075,0.511z" fill="#ffffff"></path><path d="M30,41c1.10457,0 2,0.89543 2,2c0,0.55228 0.44772,1 1,1c0.55228,0 1,-0.44772 1,-1c0,-2.20914 -1.79086,-4 -4,-4c-2.20914,0 -4,1.79086 -4,4c0,2.20914 1.79086,4 4,4c1.10457,0 2,0.89543 2,2c0,1.10457 -0.89543,2 -2,2c-1.10457,0 -2,-0.89543 -2,-2c0,-0.55228 -0.44772,-1 -1,-1c-0.55228,0 -1,0.44772 -1,1c0,2.20914 1.79086,4 4,4c2.20914,0 4,-1.79086 4,-4c0,-2.20914 -1.79086,-4 -4,-4c-1.10457,0 -2,-0.89543 -2,-2c0,-1.10457 0.89543,-2 2,-2z" fill="#ffffff"></path><path d="M47,39c-0.55228,0 -1,0.44772 -1,1v12c0,0.55228 0.44772,1 1,1h6c0.55228,0 1,-0.44772 1,-1c0,-0.55228 -0.44772,-1 -1,-1h-5v-11c0,-0.55228 -0.44772,-1 -1,-1z" fill="#ffffff"></path></g></g></svg>